<svg width="919" height="919" viewBox="0 0 919 919" fill="none" xmlns="http://www.w3.org/2000/svg">
<rect width="919" height="919" rx="459.5" fill="#0B0B0B"/>
<g opacity="0.91">
<path d="M665.972 661.545H552.794L472.764 573.774L460.481 560.297L377.1 468.84L460.56 377.294L467.405 369.779L547.432 282H660.604L490.262 468.84H490.278L517.062 498.228L585.945 573.774L665.972 661.545Z" fill="#FFA53D"/>
<path d="M891.716 415.186V528.332C891.716 601.911 837.342 661.518 770.268 661.518H715.207L635.186 573.774H755.176C758.845 574.21 762.55 574.21 766.219 573.774C789.396 571.075 807.997 551.566 811.689 526.559C811.94 524.876 812.131 523.164 812.236 521.418C812.323 520.104 812.365 518.771 812.365 517.431C812.365 516.09 812.323 514.784 812.236 513.443C812.131 511.68 811.94 509.995 811.689 508.311V435.578C812.591 429.53 812.591 423.378 811.689 417.329C807.71 390.366 786.39 369.779 760.693 369.779H751.702C750.155 369.647 748.609 369.585 747.037 369.585C745.465 369.585 743.918 369.647 742.372 369.779H629.627L709.69 282H770.268C837.342 282 891.716 341.643 891.716 415.186Z" fill="#FFA53D"/>
<path d="M502.557 661.545H389.395L378.336 649.426L351.536 620.037L309.341 573.774L270.247 530.934L213.658 468.866L270.22 406.833L279.152 397.043C279.682 396.543 280.175 396 280.62 395.42C282.909 392.52 284.153 388.913 284.146 385.197C284.146 377.4 278.934 370.935 272.124 369.779C270.664 369.52 269.171 369.52 267.711 369.779H106.994V661.545L72.5393 623.724L27 573.774V282H463.169C470.987 282 477.398 288.986 477.398 297.603C477.411 300.863 476.467 304.054 474.687 306.767L435.029 350.26L417.229 369.779L408.16 379.737L351.569 441.806L326.915 468.84H326.864L434.925 587.366L502.557 661.545Z" fill="#FFA53D"/>
</g>
</svg>
